# xmcd CD database file
#
# Track frame offsets:
#	150
#	12456
#	25317
#	36903
#	52967
#	66151
#	78407
#	91303
#	100827
#	113002
#	127132
#	138687
#	150664
#	163380
#	176994
#	190007
#	203536
#	214031
#
# Disc length: 3036 seconds
#
# Revision: 0
# Processed by: cddbd v1.5.2PL0 Copyright (c) Steve Scherf et al.
# Submitted via: CDex 1.51
#
DISCID=fd0bda12
DTITLE=Zharivari - Feiern macht sexy  CD3
DYEAR=2006
DGENRE=Volkstümlich
TTITLE0=Blaskonzert im grünen Wald
TTITLE1=Auf der Alm da gibt's a Sünd
TTITLE2=Die alten Rittersleut
TTITLE3=Vollmond i spür di
TTITLE4=Die drei schönsten Dinge
TTITLE5=Schnecken mögens langsam
TTITLE6=Ein Schürzenjäger hat es leicht
TTITLE7=Horch er kommt von draußen rein
TTITLE8=Fensterln ist wieder modern
TTITLE9=Was braucht der Jäger in der Natur
TTITLE10=Der Mittagsschnacksler
TTITLE11=So ein kleiner Grenzverkehr
TTITLE12=Die Damen aus den Sittendramen
TTITLE13=Ewig steht das Glied
TTITLE14=Ein Musikant der blasen kann
TTITLE15=Im Gras macht's Spaß
TTITLE16=Franz, jetzt kommt dein Tanz
TTITLE17=Hoch in den Wolken
EXTD=YEAR: 2006
EXTT0=
EXTT1=
EXTT2=
EXTT3=
EXTT4=
EXTT5=
EXTT6=
EXTT7=
EXTT8=
EXTT9=
EXTT10=
EXTT11=
EXTT12=
EXTT13=
EXTT14=
EXTT15=
EXTT16=
EXTT17=
PLAYORDER=
